<svg width="1056" height="576" xmlns="http://www.w3.org/2000/svg" xmlns:xlink="http://www.w3.org/1999/xlink" overflow="hidden"><defs><clipPath id="clip0"><rect x="0" y="0" width="1056" height="576"/></clipPath><clipPath id="clip1"><rect x="640" y="121" width="28" height="135"/></clipPath><clipPath id="clip2"><rect x="667" y="121" width="28" height="135"/></clipPath><clipPath id="clip3"><rect x="694" y="121" width="27" height="135"/></clipPath><clipPath id="clip4"><rect x="720" y="121" width="28" height="135"/></clipPath><clipPath id="clip5"><rect x="747" y="121" width="28" height="135"/></clipPath><clipPath id="clip6"><rect x="774" y="121" width="27" height="135"/></clipPath><clipPath id="clip7"><rect x="800" y="121" width="28" height="135"/></clipPath><clipPath id="clip8"><rect x="827" y="121" width="27" height="135"/></clipPath><clipPath id="clip9"><rect x="853" y="121" width="28" height="135"/></clipPath><clipPath id="clip10"><rect x="880" y="121" width="28" height="135"/></clipPath><clipPath id="clip11"><rect x="907" y="121" width="27" height="135"/></clipPath><clipPath id="clip12"><rect x="933" y="121" width="28" height="135"/></clipPath><clipPath id="clip13"><rect x="960" y="121" width="28" height="135"/></clipPath><clipPath id="clip14"><rect x="614" y="144" width="27" height="136"/></clipPath><clipPath id="clip15"><rect x="614" y="168" width="27" height="135"/></clipPath><clipPath id="clip16"><rect x="614" y="191" width="27" height="136"/></clipPath><clipPath id="clip17"><rect x="614" y="215" width="27" height="135"/></clipPath><clipPath id="clip18"><rect x="614" y="238" width="27" height="135"/></clipPath><clipPath id="clip19"><rect x="614" y="261" width="27" height="136"/></clipPath><clipPath id="clip20"><rect x="614" y="285" width="27" height="135"/></clipPath><clipPath id="clip21"><rect x="614" y="308" width="27" height="136"/></clipPath><clipPath id="clip22"><rect x="614" y="332" width="27" height="135"/></clipPath><clipPath id="clip23"><rect x="614" y="355" width="27" height="135"/></clipPath><clipPath id="clip24"><rect x="614" y="378" width="27" height="136"/></clipPath><clipPath id="clip25"><rect x="614" y="402" width="27" height="135"/></clipPath><clipPath id="clip26"><rect x="614" y="425" width="27" height="136"/></clipPath></defs><g clip-path="url(#clip0)"><rect x="0" y="0" width="1056" height="576" fill="#FFFFFF"/><text font-family="Calibri,Calibri_MSFontService,sans-serif" font-weight="400" font-size="19" transform="translate(57.3696 112)">1. <tspan font-size="19" x="18.3333" y="0">Calculate soft</tspan><tspan font-size="19" x="121.293" y="0">-</tspan><tspan font-size="19" x="126.96" y="0">cosine similarities between articles </tspan><tspan font-size="19" x="0" y="23">and use the Leiden community detection algorithm </tspan><tspan font-size="19" x="0" y="45">to cluster them together into news events</tspan></text><path d="M42.5001 216.821C42.5001 195.105 60.1046 177.5 81.8209 177.5L442.179 177.5C463.896 177.5 481.5 195.105 481.5 216.821L481.5 466.179C481.5 487.896 463.896 505.5 442.179 505.5L81.8209 505.5C60.1046 505.5 42.5001 487.896 42.5001 466.179Z" stroke="#A5A5A5" stroke-width="1.33333" stroke-miterlimit="8" fill="#F2F2F2" fill-rule="evenodd" fill-opacity="0.501961"/><path d="M63.5001 318.31C63.5001 315.101 66.101 312.5 69.3095 312.5L171.691 312.5C174.899 312.5 177.5 315.101 177.5 318.31L177.5 432.691C177.5 435.899 174.899 438.5 171.691 438.5L69.3095 438.5C66.101 438.5 63.5001 435.899 63.5001 432.691Z" stroke="#C00000" stroke-width="1.33333" stroke-miterlimit="8" fill="#FED3CC" fill-rule="evenodd" fill-opacity="0.498039"/><path d="M85.5001 368.5 153.286 368.5" stroke="#C00000" stroke-width="0.666667" stroke-miterlimit="8" fill="none" fill-rule="evenodd"/><path d="M85.5001 388.5 153.286 388.5" stroke="#C00000" stroke-width="0.666667" stroke-miterlimit="8" fill="none" fill-rule="evenodd"/><path d="M85.5001 412.5 153.286 412.5" stroke="#C00000" stroke-width="0.666667" stroke-miterlimit="8" fill="none" fill-rule="evenodd"/><text fill="#C00000" font-family="Calibri,Calibri_MSFontService,sans-serif" font-weight="400" font-size="19" transform="translate(85.2796 337)">Breitbart<tspan font-size="19" x="2.41869" y="125">9:00 AM</tspan></text><path d="M196.5 318.361C196.5 315.124 199.124 312.5 202.36 312.5L305.64 312.5C308.876 312.5 311.5 315.124 311.5 318.361L311.5 432.64C311.5 435.876 308.876 438.5 305.64 438.5L202.36 438.5C199.124 438.5 196.5 435.876 196.5 432.64Z" stroke="#70AD47" stroke-width="1.33333" stroke-miterlimit="8" fill="#E2F0D9" fill-rule="evenodd" fill-opacity="0.501961"/><path d="M219.5 368.5 287.286 368.5" stroke="#70AD47" stroke-width="0.666667" stroke-miterlimit="8" fill="none" fill-rule="evenodd"/><path d="M219.5 388.5 287.286 388.5" stroke="#70AD47" stroke-width="0.666667" stroke-miterlimit="8" fill="none" fill-rule="evenodd"/><path d="M219.5 412.5 287.286 412.5" stroke="#70AD47" stroke-width="0.666667" stroke-miterlimit="8" fill="none" fill-rule="evenodd"/><text fill="#70AD47" font-family="Calibri,Calibri_MSFontService,sans-serif" font-weight="400" font-size="19" transform="translate(219.624 338)">Fox News<tspan font-size="19" x="-3.08351" y="124">11:00 AM</tspan><tspan fill="#000000" font-size="19" x="-51.0182" y="-94">2018 midterm elections:</tspan><tspan fill="#000000" font-size="19" x="-143.671" y="-71">“migrant caravan traveling to US from Honduras”</tspan><tspan fill="#000000" font-style="italic" font-size="16" x="634.991" y="186">Harder et al., 2017</tspan></text><path d="M747.403 177.089 774.025 177.089 774.025 200.482 747.403 200.482Z" fill="#E2F0D9" fill-rule="evenodd"/><path d="M827.27 177.089 853.892 177.089 853.892 200.482 827.27 200.482Z" fill="#DAE3F3" fill-rule="evenodd"/><path d="M640.915 200.482 667.537 200.482 667.537 223.875 640.915 223.875Z" fill="#F2F2F2" fill-rule="evenodd" fill-opacity="0.501961"/><path d="M667.537 200.482 694.159 200.482 694.159 223.875 667.537 223.875Z" fill="#F2F2F2" fill-rule="evenodd" fill-opacity="0.501961"/><path d="M694.159 200.482 720.781 200.482 720.781 223.875 694.159 223.875Z" fill="#F2F2F2" fill-rule="evenodd" fill-opacity="0.501961"/><path d="M720.781 200.482 747.403 200.482 747.403 223.875 720.781 223.875Z" fill="#F2F2F2" fill-rule="evenodd" fill-opacity="0.501961"/><path d="M747.403 200.482 774.025 200.482 774.025 223.875 747.403 223.875Z" fill="#F2F2F2" fill-rule="evenodd" fill-opacity="0.501961"/><path d="M774.025 200.482 800.647 200.482 800.647 223.875 774.025 223.875Z" fill="#F2F2F2" fill-rule="evenodd" fill-opacity="0.501961"/><path d="M800.647 200.482 827.27 200.482 827.27 223.875 800.647 223.875Z" fill="#F2F2F2" fill-rule="evenodd" fill-opacity="0.501961"/><path d="M827.27 200.482 853.892 200.482 853.892 223.875 827.27 223.875Z" fill="#F2F2F2" fill-rule="evenodd" fill-opacity="0.501961"/><path d="M853.892 200.482 880.514 200.482 880.514 223.875 853.892 223.875Z" fill="#F2F2F2" fill-rule="evenodd" fill-opacity="0.501961"/><path d="M880.514 200.482 907.136 200.482 907.136 223.875 880.514 223.875Z" fill="#F2F2F2" fill-rule="evenodd" fill-opacity="0.501961"/><path d="M907.136 200.482 933.758 200.482 933.758 223.875 907.136 223.875Z" fill="#F2F2F2" fill-rule="evenodd" fill-opacity="0.501961"/><path d="M933.758 200.482 960.38 200.482 960.38 223.875 933.758 223.875Z" fill="#F2F2F2" fill-rule="evenodd" fill-opacity="0.501961"/><path d="M960.38 200.482 987.002 200.482 987.002 223.875 960.38 223.875Z" fill="#F2F2F2" fill-rule="evenodd" fill-opacity="0.501961"/><path d="M614.293 223.875 640.915 223.875 640.915 247.268 614.293 247.268Z" fill="#FED3CC" fill-rule="evenodd"/><path d="M640.915 223.875 667.537 223.875 667.537 247.268 640.915 247.268Z" fill="#F2F2F2" fill-rule="evenodd" fill-opacity="0.501961"/><path d="M667.537 223.875 694.159 223.875 694.159 247.268 667.537 247.268Z" fill="#F2F2F2" fill-rule="evenodd" fill-opacity="0.501961"/><path d="M694.159 223.875 720.781 223.875 720.781 247.268 694.159 247.268Z" fill="#F2F2F2" fill-rule="evenodd" fill-opacity="0.501961"/><path d="M720.781 223.875 747.403 223.875 747.403 247.268 720.781 247.268Z" fill="#F2F2F2" fill-rule="evenodd" fill-opacity="0.501961"/><path d="M747.403 223.875 774.025 223.875 774.025 247.268 747.403 247.268Z" fill="#FFFF00" fill-rule="evenodd" fill-opacity="0.501961"/><path d="M774.025 223.875 800.647 223.875 800.647 247.268 774.025 247.268Z" fill="#F2F2F2" fill-rule="evenodd" fill-opacity="0.501961"/><path d="M800.647 223.875 827.27 223.875 827.27 247.268 800.647 247.268Z" fill="#F2F2F2" fill-rule="evenodd" fill-opacity="0.501961"/><path d="M827.27 223.875 853.892 223.875 853.892 247.268 827.27 247.268Z" fill="#7030A0" fill-rule="evenodd" fill-opacity="0.498039"/><path d="M853.892 223.875 880.514 223.875 880.514 247.268 853.892 247.268Z" fill="#F2F2F2" fill-rule="evenodd" fill-opacity="0.501961"/><path d="M880.514 223.875 907.136 223.875 907.136 247.268 880.514 247.268Z" fill="#F2F2F2" fill-rule="evenodd" fill-opacity="0.501961"/><path d="M907.136 223.875 933.758 223.875 933.758 247.268 907.136 247.268Z" fill="#F2F2F2" fill-rule="evenodd" fill-opacity="0.501961"/><path d="M933.758 223.875 960.38 223.875 960.38 247.268 933.758 247.268Z" fill="#F2F2F2" fill-rule="evenodd" fill-opacity="0.501961"/><path d="M960.38 223.875 987.002 223.875 987.002 247.268 960.38 247.268Z" fill="#F2F2F2" fill-rule="evenodd" fill-opacity="0.501961"/><path d="M640.915 247.268 667.537 247.268 667.537 270.66 640.915 270.66Z" fill="#F2F2F2" fill-rule="evenodd" fill-opacity="0.501961"/><path d="M667.537 247.268 694.159 247.268 694.159 270.66 667.537 270.66Z" fill="#F2F2F2" fill-rule="evenodd" fill-opacity="0.501961"/><path d="M694.159 247.268 720.781 247.268 720.781 270.66 694.159 270.66Z" fill="#F2F2F2" fill-rule="evenodd" fill-opacity="0.501961"/><path d="M720.781 247.268 747.403 247.268 747.403 270.66 720.781 270.66Z" fill="#F2F2F2" fill-rule="evenodd" fill-opacity="0.501961"/><path d="M747.403 247.268 774.025 247.268 774.025 270.66 747.403 270.66Z" fill="#F2F2F2" fill-rule="evenodd" fill-opacity="0.501961"/><path d="M774.025 247.268 800.647 247.268 800.647 270.66 774.025 270.66Z" fill="#F2F2F2" fill-rule="evenodd" fill-opacity="0.501961"/><path d="M800.647 247.268 827.27 247.268 827.27 270.66 800.647 270.66Z" fill="#F2F2F2" fill-rule="evenodd" fill-opacity="0.501961"/><path d="M827.27 247.268 853.892 247.268 853.892 270.66 827.27 270.66Z" fill="#F2F2F2" fill-rule="evenodd" fill-opacity="0.501961"/><path d="M853.892 247.268 880.514 247.268 880.514 270.66 853.892 270.66Z" fill="#F2F2F2" fill-rule="evenodd" fill-opacity="0.501961"/><path d="M880.514 247.268 907.136 247.268 907.136 270.66 880.514 270.66Z" fill="#F2F2F2" fill-rule="evenodd" fill-opacity="0.501961"/><path d="M907.136 247.268 933.758 247.268 933.758 270.66 907.136 270.66Z" fill="#F2F2F2" fill-rule="evenodd" fill-opacity="0.501961"/><path d="M933.758 247.268 960.38 247.268 960.38 270.66 933.758 270.66Z" fill="#F2F2F2" fill-rule="evenodd" fill-opacity="0.501961"/><path d="M960.38 247.268 987.002 247.268 987.002 270.66 960.38 270.66Z" fill="#F2F2F2" fill-rule="evenodd" fill-opacity="0.501961"/><path d="M640.915 270.66 667.537 270.66 667.537 294.053 640.915 294.053Z" fill="#F2F2F2" fill-rule="evenodd" fill-opacity="0.501961"/><path d="M667.537 270.66 694.159 270.66 694.159 294.053 667.537 294.053Z" fill="#F2F2F2" fill-rule="evenodd" fill-opacity="0.501961"/><path d="M694.159 270.66 720.781 270.66 720.781 294.053 694.159 294.053Z" fill="#F2F2F2" fill-rule="evenodd" fill-opacity="0.501961"/><path d="M720.781 270.66 747.403 270.66 747.403 294.053 720.781 294.053Z" fill="#F2F2F2" fill-rule="evenodd" fill-opacity="0.501961"/><path d="M747.403 270.66 774.025 270.66 774.025 294.053 747.403 294.053Z" fill="#F2F2F2" fill-rule="evenodd" fill-opacity="0.501961"/><path d="M774.025 270.66 800.647 270.66 800.647 294.053 774.025 294.053Z" fill="#F2F2F2" fill-rule="evenodd" fill-opacity="0.501961"/><path d="M800.647 270.66 827.27 270.66 827.27 294.053 800.647 294.053Z" fill="#F2F2F2" fill-rule="evenodd" fill-opacity="0.501961"/><path d="M827.27 270.66 853.892 270.66 853.892 294.053 827.27 294.053Z" fill="#F2F2F2" fill-rule="evenodd" fill-opacity="0.501961"/><path d="M853.892 270.66 880.514 270.66 880.514 294.053 853.892 294.053Z" fill="#F2F2F2" fill-rule="evenodd" fill-opacity="0.501961"/><path d="M880.514 270.66 907.136 270.66 907.136 294.053 880.514 294.053Z" fill="#F2F2F2" fill-rule="evenodd" fill-opacity="0.501961"/><path d="M907.136 270.66 933.758 270.66 933.758 294.053 907.136 294.053Z" fill="#F2F2F2" fill-rule="evenodd" fill-opacity="0.501961"/><path d="M933.758 270.66 960.38 270.66 960.38 294.053 933.758 294.053Z" fill="#F2F2F2" fill-rule="evenodd" fill-opacity="0.501961"/><path d="M960.38 270.66 987.002 270.66 987.002 294.053 960.38 294.053Z" fill="#F2F2F2" fill-rule="evenodd" fill-opacity="0.501961"/><path d="M640.915 294.053 667.537 294.053 667.537 317.446 640.915 317.446Z" fill="#F2F2F2" fill-rule="evenodd" fill-opacity="0.501961"/><path d="M667.537 294.053 694.159 294.053 694.159 317.446 667.537 317.446Z" fill="#F2F2F2" fill-rule="evenodd" fill-opacity="0.501961"/><path d="M694.159 294.053 720.781 294.053 720.781 317.446 694.159 317.446Z" fill="#F2F2F2" fill-rule="evenodd" fill-opacity="0.501961"/><path d="M720.781 294.053 747.403 294.053 747.403 317.446 720.781 317.446Z" fill="#F2F2F2" fill-rule="evenodd" fill-opacity="0.501961"/><path d="M747.403 294.053 774.025 294.053 774.025 317.446 747.403 317.446Z" fill="#F2F2F2" fill-rule="evenodd" fill-opacity="0.501961"/><path d="M774.025 294.053 800.647 294.053 800.647 317.446 774.025 317.446Z" fill="#F2F2F2" fill-rule="evenodd" fill-opacity="0.501961"/><path d="M800.647 294.053 827.27 294.053 827.27 317.446 800.647 317.446Z" fill="#F2F2F2" fill-rule="evenodd" fill-opacity="0.501961"/><path d="M827.27 294.053 853.892 294.053 853.892 317.446 827.27 317.446Z" fill="#F2F2F2" fill-rule="evenodd" fill-opacity="0.501961"/><path d="M853.892 294.053 880.514 294.053 880.514 317.446 853.892 317.446Z" fill="#F2F2F2" fill-rule="evenodd" fill-opacity="0.501961"/><path d="M880.514 294.053 907.136 294.053 907.136 317.446 880.514 317.446Z" fill="#F2F2F2" fill-rule="evenodd" fill-opacity="0.501961"/><path d="M907.136 294.053 933.758 294.053 933.758 317.446 907.136 317.446Z" fill="#F2F2F2" fill-rule="evenodd" fill-opacity="0.501961"/><path d="M933.758 294.053 960.38 294.053 960.38 317.446 933.758 317.446Z" fill="#F2F2F2" fill-rule="evenodd" fill-opacity="0.501961"/><path d="M960.38 294.053 987.002 294.053 987.002 317.446 960.38 317.446Z" fill="#F2F2F2" fill-rule="evenodd" fill-opacity="0.501961"/><path d="M640.915 317.446 667.537 317.446 667.537 340.839 640.915 340.839Z" fill="#F2F2F2" fill-rule="evenodd" fill-opacity="0.501961"/><path d="M667.537 317.446 694.159 317.446 694.159 340.839 667.537 340.839Z" fill="#F2F2F2" fill-rule="evenodd" fill-opacity="0.501961"/><path d="M694.159 317.446 720.781 317.446 720.781 340.839 694.159 340.839Z" fill="#F2F2F2" fill-rule="evenodd" fill-opacity="0.501961"/><path d="M720.781 317.446 747.403 317.446 747.403 340.839 720.781 340.839Z" fill="#F2F2F2" fill-rule="evenodd" fill-opacity="0.501961"/><path d="M747.403 317.446 774.025 317.446 774.025 340.839 747.403 340.839Z" fill="#F2F2F2" fill-rule="evenodd" fill-opacity="0.501961"/><path d="M774.025 317.446 800.647 317.446 800.647 340.839 774.025 340.839Z" fill="#F2F2F2" fill-rule="evenodd" fill-opacity="0.501961"/><path d="M800.647 317.446 827.27 317.446 827.27 340.839 800.647 340.839Z" fill="#F2F2F2" fill-rule="evenodd" fill-opacity="0.501961"/><path d="M827.27 317.446 853.892 317.446 853.892 340.839 827.27 340.839Z" fill="#F2F2F2" fill-rule="evenodd" fill-opacity="0.501961"/><path d="M853.892 317.446 880.514 317.446 880.514 340.839 853.892 340.839Z" fill="#F2F2F2" fill-rule="evenodd" fill-opacity="0.501961"/><path d="M880.514 317.446 907.136 317.446 907.136 340.839 880.514 340.839Z" fill="#F2F2F2" fill-rule="evenodd" fill-opacity="0.501961"/><path d="M907.136 317.446 933.758 317.446 933.758 340.839 907.136 340.839Z" fill="#F2F2F2" fill-rule="evenodd" fill-opacity="0.501961"/><path d="M933.758 317.446 960.38 317.446 960.38 340.839 933.758 340.839Z" fill="#F2F2F2" fill-rule="evenodd" fill-opacity="0.501961"/><path d="M960.38 317.446 987.002 317.446 987.002 340.839 960.38 340.839Z" fill="#F2F2F2" fill-rule="evenodd" fill-opacity="0.501961"/><path d="M640.915 340.839 667.537 340.839 667.537 364.231 640.915 364.231Z" fill="#F2F2F2" fill-rule="evenodd" fill-opacity="0.501961"/><path d="M667.537 340.839 694.159 340.839 694.159 364.231 667.537 364.231Z" fill="#F2F2F2" fill-rule="evenodd" fill-opacity="0.501961"/><path d="M694.159 340.839 720.781 340.839 720.781 364.231 694.159 364.231Z" fill="#F2F2F2" fill-rule="evenodd" fill-opacity="0.501961"/><path d="M720.781 340.839 747.403 340.839 747.403 364.231 720.781 364.231Z" fill="#F2F2F2" fill-rule="evenodd" fill-opacity="0.501961"/><path d="M747.403 340.839 774.025 340.839 774.025 364.231 747.403 364.231Z" fill="#F2F2F2" fill-rule="evenodd" fill-opacity="0.501961"/><path d="M774.025 340.839 800.647 340.839 800.647 364.231 774.025 364.231Z" fill="#F2F2F2" fill-rule="evenodd" fill-opacity="0.501961"/><path d="M800.647 340.839 827.27 340.839 827.27 364.231 800.647 364.231Z" fill="#F2F2F2" fill-rule="evenodd" fill-opacity="0.501961"/><path d="M827.27 340.839 853.892 340.839 853.892 364.231 827.27 364.231Z" fill="#F2F2F2" fill-rule="evenodd" fill-opacity="0.501961"/><path d="M853.892 340.839 880.514 340.839 880.514 364.231 853.892 364.231Z" fill="#F2F2F2" fill-rule="evenodd" fill-opacity="0.501961"/><path d="M880.514 340.839 907.136 340.839 907.136 364.231 880.514 364.231Z" fill="#F2F2F2" fill-rule="evenodd" fill-opacity="0.501961"/><path d="M907.136 340.839 933.758 340.839 933.758 364.231 907.136 364.231Z" fill="#F2F2F2" fill-rule="evenodd" fill-opacity="0.501961"/><path d="M933.758 340.839 960.38 340.839 960.38 364.231 933.758 364.231Z" fill="#F2F2F2" fill-rule="evenodd" fill-opacity="0.501961"/><path d="M960.38 340.839 987.002 340.839 987.002 364.231 960.38 364.231Z" fill="#F2F2F2" fill-rule="evenodd" fill-opacity="0.501961"/><path d="M640.915 364.231 667.537 364.231 667.537 387.624 640.915 387.624Z" fill="#F2F2F2" fill-rule="evenodd" fill-opacity="0.501961"/><path d="M667.537 364.231 694.159 364.231 694.159 387.624 667.537 387.624Z" fill="#F2F2F2" fill-rule="evenodd" fill-opacity="0.501961"/><path d="M694.159 364.231 720.781 364.231 720.781 387.624 694.159 387.624Z" fill="#F2F2F2" fill-rule="evenodd" fill-opacity="0.501961"/><path d="M720.781 364.231 747.403 364.231 747.403 387.624 720.781 387.624Z" fill="#F2F2F2" fill-rule="evenodd" fill-opacity="0.501961"/><path d="M747.403 364.231 774.025 364.231 774.025 387.624 747.403 387.624Z" fill="#F2F2F2" fill-rule="evenodd" fill-opacity="0.501961"/><path d="M774.025 364.231 800.647 364.231 800.647 387.624 774.025 387.624Z" fill="#F2F2F2" fill-rule="evenodd" fill-opacity="0.501961"/><path d="M800.647 364.231 827.27 364.231 827.27 387.624 800.647 387.624Z" fill="#F2F2F2" fill-rule="evenodd" fill-opacity="0.501961"/><path d="M827.27 364.231 853.892 364.231 853.892 387.624 827.27 387.624Z" fill="#F2F2F2" fill-rule="evenodd" fill-opacity="0.501961"/><path d="M853.892 364.231 880.514 364.231 880.514 387.624 853.892 387.624Z" fill="#F2F2F2" fill-rule="evenodd" fill-opacity="0.501961"/><path d="M880.514 364.231 907.136 364.231 907.136 387.624 880.514 387.624Z" fill="#F2F2F2" fill-rule="evenodd" fill-opacity="0.501961"/><path d="M907.136 364.231 933.758 364.231 933.758 387.624 907.136 387.624Z" fill="#F2F2F2" fill-rule="evenodd" fill-opacity="0.501961"/><path d="M933.758 364.231 960.38 364.231 960.38 387.624 933.758 387.624Z" fill="#F2F2F2" fill-rule="evenodd" fill-opacity="0.501961"/><path d="M960.38 364.231 987.002 364.231 987.002 387.624 960.38 387.624Z" fill="#F2F2F2" fill-rule="evenodd" fill-opacity="0.501961"/><path d="M640.915 387.624 667.537 387.624 667.537 411.017 640.915 411.017Z" fill="#F2F2F2" fill-rule="evenodd" fill-opacity="0.501961"/><path d="M667.537 387.624 694.159 387.624 694.159 411.017 667.537 411.017Z" fill="#F2F2F2" fill-rule="evenodd" fill-opacity="0.501961"/><path d="M694.159 387.624 720.781 387.624 720.781 411.017 694.159 411.017Z" fill="#F2F2F2" fill-rule="evenodd" fill-opacity="0.501961"/><path d="M720.781 387.624 747.403 387.624 747.403 411.017 720.781 411.017Z" fill="#F2F2F2" fill-rule="evenodd" fill-opacity="0.501961"/><path d="M747.403 387.624 774.025 387.624 774.025 411.017 747.403 411.017Z" fill="#F2F2F2" fill-rule="evenodd" fill-opacity="0.501961"/><path d="M774.025 387.624 800.647 387.624 800.647 411.017 774.025 411.017Z" fill="#F2F2F2" fill-rule="evenodd" fill-opacity="0.501961"/><path d="M800.647 387.624 827.27 387.624 827.27 411.017 800.647 411.017Z" fill="#F2F2F2" fill-rule="evenodd" fill-opacity="0.501961"/><path d="M827.27 387.624 853.892 387.624 853.892 411.017 827.27 411.017Z" fill="#F2F2F2" fill-rule="evenodd" fill-opacity="0.501961"/><path d="M853.892 387.624 880.514 387.624 880.514 411.017 853.892 411.017Z" fill="#F2F2F2" fill-rule="evenodd" fill-opacity="0.501961"/><path d="M880.514 387.624 907.136 387.624 907.136 411.017 880.514 411.017Z" fill="#F2F2F2" fill-rule="evenodd" fill-opacity="0.501961"/><path d="M907.136 387.624 933.758 387.624 933.758 411.017 907.136 411.017Z" fill="#F2F2F2" fill-rule="evenodd" fill-opacity="0.501961"/><path d="M933.758 387.624 960.38 387.624 960.38 411.017 933.758 411.017Z" fill="#F2F2F2" fill-rule="evenodd" fill-opacity="0.501961"/><path d="M960.38 387.624 987.002 387.624 987.002 411.017 960.38 411.017Z" fill="#F2F2F2" fill-rule="evenodd" fill-opacity="0.501961"/><path d="M640.915 411.017 667.537 411.017 667.537 434.41 640.915 434.41Z" fill="#F2F2F2" fill-rule="evenodd" fill-opacity="0.501961"/><path d="M667.537 411.017 694.159 411.017 694.159 434.41 667.537 434.41Z" fill="#F2F2F2" fill-rule="evenodd" fill-opacity="0.501961"/><path d="M694.159 411.017 720.781 411.017 720.781 434.41 694.159 434.41Z" fill="#F2F2F2" fill-rule="evenodd" fill-opacity="0.501961"/><path d="M720.781 411.017 747.403 411.017 747.403 434.41 720.781 434.41Z" fill="#F2F2F2" fill-rule="evenodd" fill-opacity="0.501961"/><path d="M747.403 411.017 774.025 411.017 774.025 434.41 747.403 434.41Z" fill="#F2F2F2" fill-rule="evenodd" fill-opacity="0.501961"/><path d="M774.025 411.017 800.647 411.017 800.647 434.41 774.025 434.41Z" fill="#F2F2F2" fill-rule="evenodd" fill-opacity="0.501961"/><path d="M800.647 411.017 827.27 411.017 827.27 434.41 800.647 434.41Z" fill="#F2F2F2" fill-rule="evenodd" fill-opacity="0.501961"/><path d="M827.27 411.017 853.892 411.017 853.892 434.41 827.27 434.41Z" fill="#F2F2F2" fill-rule="evenodd" fill-opacity="0.501961"/><path d="M853.892 411.017 880.514 411.017 880.514 434.41 853.892 434.41Z" fill="#F2F2F2" fill-rule="evenodd" fill-opacity="0.501961"/><path d="M880.514 411.017 907.136 411.017 907.136 434.41 880.514 434.41Z" fill="#F2F2F2" fill-rule="evenodd" fill-opacity="0.501961"/><path d="M907.136 411.017 933.758 411.017 933.758 434.41 907.136 434.41Z" fill="#F2F2F2" fill-rule="evenodd" fill-opacity="0.501961"/><path d="M933.758 411.017 960.38 411.017 960.38 434.41 933.758 434.41Z" fill="#F2F2F2" fill-rule="evenodd" fill-opacity="0.501961"/><path d="M960.38 411.017 987.002 411.017 987.002 434.41 960.38 434.41Z" fill="#F2F2F2" fill-rule="evenodd" fill-opacity="0.501961"/><path d="M640.915 434.41 667.537 434.41 667.537 457.802 640.915 457.802Z" fill="#F2F2F2" fill-rule="evenodd" fill-opacity="0.501961"/><path d="M667.537 434.41 694.159 434.41 694.159 457.802 667.537 457.802Z" fill="#F2F2F2" fill-rule="evenodd" fill-opacity="0.501961"/><path d="M694.159 434.41 720.781 434.41 720.781 457.802 694.159 457.802Z" fill="#F2F2F2" fill-rule="evenodd" fill-opacity="0.501961"/><path d="M720.781 434.41 747.403 434.41 747.403 457.802 720.781 457.802Z" fill="#F2F2F2" fill-rule="evenodd" fill-opacity="0.501961"/><path d="M747.403 434.41 774.025 434.41 774.025 457.802 747.403 457.802Z" fill="#F2F2F2" fill-rule="evenodd" fill-opacity="0.501961"/><path d="M774.025 434.41 800.647 434.41 800.647 457.802 774.025 457.802Z" fill="#F2F2F2" fill-rule="evenodd" fill-opacity="0.501961"/><path d="M800.647 434.41 827.27 434.41 827.27 457.802 800.647 457.802Z" fill="#F2F2F2" fill-rule="evenodd" fill-opacity="0.501961"/><path d="M827.27 434.41 853.892 434.41 853.892 457.802 827.27 457.802Z" fill="#F2F2F2" fill-rule="evenodd" fill-opacity="0.501961"/><path d="M853.892 434.41 880.514 434.41 880.514 457.802 853.892 457.802Z" fill="#F2F2F2" fill-rule="evenodd" fill-opacity="0.501961"/><path d="M880.514 434.41 907.136 434.41 907.136 457.802 880.514 457.802Z" fill="#F2F2F2" fill-rule="evenodd" fill-opacity="0.501961"/><path d="M907.136 434.41 933.758 434.41 933.758 457.802 907.136 457.802Z" fill="#F2F2F2" fill-rule="evenodd" fill-opacity="0.501961"/><path d="M933.758 434.41 960.38 434.41 960.38 457.802 933.758 457.802Z" fill="#F2F2F2" fill-rule="evenodd" fill-opacity="0.501961"/><path d="M960.38 434.41 987.002 434.41 987.002 457.802 960.38 457.802Z" fill="#F2F2F2" fill-rule="evenodd" fill-opacity="0.501961"/><path d="M640.915 457.802 667.537 457.802 667.537 481.195 640.915 481.195Z" fill="#F2F2F2" fill-rule="evenodd" fill-opacity="0.501961"/><path d="M667.537 457.802 694.159 457.802 694.159 481.195 667.537 481.195Z" fill="#F2F2F2" fill-rule="evenodd" fill-opacity="0.501961"/><path d="M694.159 457.802 720.781 457.802 720.781 481.195 694.159 481.195Z" fill="#F2F2F2" fill-rule="evenodd" fill-opacity="0.501961"/><path d="M720.781 457.802 747.403 457.802 747.403 481.195 720.781 481.195Z" fill="#F2F2F2" fill-rule="evenodd" fill-opacity="0.501961"/><path d="M747.403 457.802 774.025 457.802 774.025 481.195 747.403 481.195Z" fill="#F2F2F2" fill-rule="evenodd" fill-opacity="0.501961"/><path d="M774.025 457.802 800.647 457.802 800.647 481.195 774.025 481.195Z" fill="#F2F2F2" fill-rule="evenodd" fill-opacity="0.501961"/><path d="M800.647 457.802 827.27 457.802 827.27 481.195 800.647 481.195Z" fill="#F2F2F2" fill-rule="evenodd" fill-opacity="0.501961"/><path d="M827.27 457.802 853.892 457.802 853.892 481.195 827.27 481.195Z" fill="#F2F2F2" fill-rule="evenodd" fill-opacity="0.501961"/><path d="M853.892 457.802 880.514 457.802 880.514 481.195 853.892 481.195Z" fill="#F2F2F2" fill-rule="evenodd" fill-opacity="0.501961"/><path d="M880.514 457.802 907.136 457.802 907.136 481.195 880.514 481.195Z" fill="#F2F2F2" fill-rule="evenodd" fill-opacity="0.501961"/><path d="M907.136 457.802 933.758 457.802 933.758 481.195 907.136 481.195Z" fill="#F2F2F2" fill-rule="evenodd" fill-opacity="0.501961"/><path d="M933.758 457.802 960.38 457.802 960.38 481.195 933.758 481.195Z" fill="#F2F2F2" fill-rule="evenodd" fill-opacity="0.501961"/><path d="M960.38 457.802 987.002 457.802 987.002 481.195 960.38 481.195Z" fill="#F2F2F2" fill-rule="evenodd" fill-opacity="0.501961"/><path d="M640.915 481.195 667.537 481.195 667.537 504.588 640.915 504.588Z" fill="#F2F2F2" fill-rule="evenodd" fill-opacity="0.501961"/><path d="M667.537 481.195 694.159 481.195 694.159 504.588 667.537 504.588Z" fill="#F2F2F2" fill-rule="evenodd" fill-opacity="0.501961"/><path d="M694.159 481.195 720.781 481.195 720.781 504.588 694.159 504.588Z" fill="#F2F2F2" fill-rule="evenodd" fill-opacity="0.501961"/><path d="M720.781 481.195 747.403 481.195 747.403 504.588 720.781 504.588Z" fill="#F2F2F2" fill-rule="evenodd" fill-opacity="0.501961"/><path d="M747.403 481.195 774.025 481.195 774.025 504.588 747.403 504.588Z" fill="#F2F2F2" fill-rule="evenodd" fill-opacity="0.501961"/><path d="M774.025 481.195 800.647 481.195 800.647 504.588 774.025 504.588Z" fill="#F2F2F2" fill-rule="evenodd" fill-opacity="0.501961"/><path d="M800.647 481.195 827.27 481.195 827.27 504.588 800.647 504.588Z" fill="#F2F2F2" fill-rule="evenodd" fill-opacity="0.501961"/><path d="M827.27 481.195 853.892 481.195 853.892 504.588 827.27 504.588Z" fill="#F2F2F2" fill-rule="evenodd" fill-opacity="0.501961"/><path d="M853.892 481.195 880.514 481.195 880.514 504.588 853.892 504.588Z" fill="#F2F2F2" fill-rule="evenodd" fill-opacity="0.501961"/><path d="M880.514 481.195 907.136 481.195 907.136 504.588 880.514 504.588Z" fill="#F2F2F2" fill-rule="evenodd" fill-opacity="0.501961"/><path d="M907.136 481.195 933.758 481.195 933.758 504.588 907.136 504.588Z" fill="#F2F2F2" fill-rule="evenodd" fill-opacity="0.501961"/><path d="M933.758 481.195 960.38 481.195 960.38 504.588 933.758 504.588Z" fill="#F2F2F2" fill-rule="evenodd" fill-opacity="0.501961"/><path d="M960.38 481.195 987.002 481.195 987.002 504.588 960.38 504.588Z" fill="#F2F2F2" fill-rule="evenodd" fill-opacity="0.501961"/><path d="M640.915 176.423 640.915 505.254" stroke="#A6A6A6" stroke-width="1.33333" stroke-linejoin="round" stroke-miterlimit="10" fill="none" fill-rule="evenodd"/><path d="M667.537 176.423 667.537 504.921" stroke="#A6A6A6" stroke-width="0.666667" stroke-linejoin="round" stroke-miterlimit="10" fill="none" fill-rule="evenodd"/><path d="M694.159 176.423 694.159 504.921" stroke="#A6A6A6" stroke-width="0.666667" stroke-linejoin="round" stroke-miterlimit="10" fill="none" fill-rule="evenodd"/><path d="M720.781 176.423 720.781 504.921" stroke="#A6A6A6" stroke-width="0.666667" stroke-linejoin="round" stroke-miterlimit="10" fill="none" fill-rule="evenodd"/><path d="M747.403 176.423 747.403 504.921" stroke="#A6A6A6" stroke-width="0.666667" stroke-linejoin="round" stroke-miterlimit="10" fill="none" fill-rule="evenodd"/><path d="M774.025 176.423 774.025 504.921" stroke="#A6A6A6" stroke-width="0.666667" stroke-linejoin="round" stroke-miterlimit="10" fill="none" fill-rule="evenodd"/><path d="M800.647 176.423 800.647 504.921" stroke="#A6A6A6" stroke-width="0.666667" stroke-linejoin="round" stroke-miterlimit="10" fill="none" fill-rule="evenodd"/><path d="M827.27 176.423 827.27 504.921" stroke="#A6A6A6" stroke-width="0.666667" stroke-linejoin="round" stroke-miterlimit="10" fill="none" fill-rule="evenodd"/><path d="M853.892 176.423 853.892 504.921" stroke="#A6A6A6" stroke-width="0.666667" stroke-linejoin="round" stroke-miterlimit="10" fill="none" fill-rule="evenodd"/><path d="M880.514 176.423 880.514 504.921" stroke="#A6A6A6" stroke-width="0.666667" stroke-linejoin="round" stroke-miterlimit="10" fill="none" fill-rule="evenodd"/><path d="M907.136 176.423 907.136 504.921" stroke="#A6A6A6" stroke-width="0.666667" stroke-linejoin="round" stroke-miterlimit="10" fill="none" fill-rule="evenodd"/><path d="M933.758 176.423 933.758 504.921" stroke="#A6A6A6" stroke-width="0.666667" stroke-linejoin="round" stroke-miterlimit="10" fill="none" fill-rule="evenodd"/><path d="M960.38 176.423 960.38 504.921" stroke="#A6A6A6" stroke-width="0.666667" stroke-linejoin="round" stroke-miterlimit="10" fill="none" fill-rule="evenodd"/><path d="M613.626 200.482 987.668 200.482" stroke="#A6A6A6" stroke-width="1.33333" stroke-linejoin="round" stroke-miterlimit="10" fill="none" fill-rule="evenodd"/><path d="M613.626 223.875 987.335 223.875" stroke="#A6A6A6" stroke-width="0.666667" stroke-linejoin="round" stroke-miterlimit="10" fill="none" fill-rule="evenodd"/><path d="M613.626 247.268 987.335 247.268" stroke="#A6A6A6" stroke-width="0.666667" stroke-linejoin="round" stroke-miterlimit="10" fill="none" fill-rule="evenodd"/><path d="M613.626 270.66 987.335 270.66" stroke="#A6A6A6" stroke-width="0.666667" stroke-linejoin="round" stroke-miterlimit="10" fill="none" fill-rule="evenodd"/><path d="M613.626 294.053 987.335 294.053" stroke="#A6A6A6" stroke-width="0.666667" stroke-linejoin="round" stroke-miterlimit="10" fill="none" fill-rule="evenodd"/><path d="M613.626 317.446 987.335 317.446" stroke="#A6A6A6" stroke-width="0.666667" stroke-linejoin="round" stroke-miterlimit="10" fill="none" fill-rule="evenodd"/><path d="M613.626 340.839 987.335 340.839" stroke="#A6A6A6" stroke-width="0.666667" stroke-linejoin="round" stroke-miterlimit="10" fill="none" fill-rule="evenodd"/><path d="M613.626 364.231 987.335 364.231" stroke="#A6A6A6" stroke-width="0.666667" stroke-linejoin="round" stroke-miterlimit="10" fill="none" fill-rule="evenodd"/><path d="M613.626 387.624 987.335 387.624" stroke="#A6A6A6" stroke-width="0.666667" stroke-linejoin="round" stroke-miterlimit="10" fill="none" fill-rule="evenodd"/><path d="M613.626 411.017 987.335 411.017" stroke="#A6A6A6" stroke-width="0.666667" stroke-linejoin="round" stroke-miterlimit="10" fill="none" fill-rule="evenodd"/><path d="M613.626 434.41 987.335 434.41" stroke="#A6A6A6" stroke-width="0.666667" stroke-linejoin="round" stroke-miterlimit="10" fill="none" fill-rule="evenodd"/><path d="M613.626 457.802 987.335 457.802" stroke="#A6A6A6" stroke-width="0.666667" stroke-linejoin="round" stroke-miterlimit="10" fill="none" fill-rule="evenodd"/><path d="M613.626 481.195 987.335 481.195" stroke="#A6A6A6" stroke-width="0.666667" stroke-linejoin="round" stroke-miterlimit="10" fill="none" fill-rule="evenodd"/><path d="M614.293 176.423 614.293 505.254" stroke="#A6A6A6" stroke-width="1.33333" stroke-linejoin="round" stroke-miterlimit="10" fill="none" fill-rule="evenodd"/><path d="M987.002 176.423 987.002 201.149" stroke="#A6A6A6" stroke-width="1.33333" stroke-linejoin="round" stroke-miterlimit="10" fill="none" fill-rule="evenodd"/><path d="M987.002 201.149 987.002 504.921" stroke="#A6A6A6" stroke-width="0.666667" stroke-linejoin="round" stroke-miterlimit="10" fill="none" fill-rule="evenodd"/><path d="M613.626 177.089 987.668 177.089" stroke="#A6A6A6" stroke-width="1.33333" stroke-linejoin="round" stroke-miterlimit="10" fill="none" fill-rule="evenodd"/><path d="M613.626 504.588 641.582 504.588" stroke="#A6A6A6" stroke-width="1.33333" stroke-linejoin="round" stroke-miterlimit="10" fill="none" fill-rule="evenodd"/><path d="M641.582 504.588 987.335 504.588" stroke="#A6A6A6" stroke-width="0.666667" stroke-linejoin="round" stroke-miterlimit="10" fill="none" fill-rule="evenodd"/><g clip-path="url(#clip1)"><text font-family="Calibri,Calibri_MSFontService,sans-serif" font-weight="400" font-size="16" transform="translate(655.108 194)">1</text></g><g clip-path="url(#clip2)"><text font-family="Calibri,Calibri_MSFontService,sans-serif" font-weight="400" font-size="16" transform="translate(681.73 194)">2</text></g><g clip-path="url(#clip3)"><text font-family="Calibri,Calibri_MSFontService,sans-serif" font-weight="400" font-size="16" transform="translate(708.352 194)">3</text></g><g clip-path="url(#clip4)"><text font-family="Calibri,Calibri_MSFontService,sans-serif" font-weight="400" font-size="16" transform="translate(734.974 194)">4</text></g><g clip-path="url(#clip5)"><text fill="#70AD47" font-family="Calibri,Calibri_MSFontService,sans-serif" font-weight="700" font-size="16" transform="translate(761.596 194)">5</text></g><g clip-path="url(#clip6)"><text font-family="Calibri,Calibri_MSFontService,sans-serif" font-weight="400" font-size="16" transform="translate(788.218 194)">6</text></g><g clip-path="url(#clip7)"><text font-family="Calibri,Calibri_MSFontService,sans-serif" font-weight="400" font-size="16" transform="translate(814.84 194)">7</text></g><g clip-path="url(#clip8)"><text fill="#4472C4" font-family="Calibri,Calibri_MSFontService,sans-serif" font-weight="700" font-size="16" transform="translate(841.462 194)">8</text></g><g clip-path="url(#clip9)"><text font-family="Calibri,Calibri_MSFontService,sans-serif" font-weight="400" font-size="16" transform="translate(868.085 194)">9</text></g><g clip-path="url(#clip10)"><text font-family="Calibri,Calibri_MSFontService,sans-serif" font-weight="400" font-size="16" transform="translate(886.54 194)">10</text></g><g clip-path="url(#clip11)"><text font-family="Calibri,Calibri_MSFontService,sans-serif" font-weight="400" font-size="16" transform="translate(913.162 194)">11</text></g><g clip-path="url(#clip12)"><text font-family="Calibri,Calibri_MSFontService,sans-serif" font-weight="400" font-size="16" transform="translate(939.784 194)">12</text></g><g clip-path="url(#clip13)"><text font-family="Calibri,Calibri_MSFontService,sans-serif" font-weight="400" font-size="16" transform="translate(966.406 194)">13</text></g><g clip-path="url(#clip14)"><text font-family="Calibri,Calibri_MSFontService,sans-serif" font-weight="400" font-size="16" transform="translate(628.486 218)">1</text></g><g clip-path="url(#clip15)"><text fill="#C00000" font-family="Calibri,Calibri_MSFontService,sans-serif" font-weight="700" font-size="16" transform="translate(628.486 241)">2</text></g><g clip-path="url(#clip16)"><text font-family="Calibri,Calibri_MSFontService,sans-serif" font-weight="400" font-size="16" transform="translate(628.486 264)">3</text></g><g clip-path="url(#clip17)"><text font-family="Calibri,Calibri_MSFontService,sans-serif" font-weight="400" font-size="16" transform="translate(628.486 288)">4</text></g><g clip-path="url(#clip18)"><text font-family="Calibri,Calibri_MSFontService,sans-serif" font-weight="400" font-size="16" transform="translate(628.486 311)">5</text></g><g clip-path="url(#clip19)"><text font-family="Calibri,Calibri_MSFontService,sans-serif" font-weight="400" font-size="16" transform="translate(628.486 335)">6</text></g><g clip-path="url(#clip20)"><text font-family="Calibri,Calibri_MSFontService,sans-serif" font-weight="400" font-size="16" transform="translate(628.486 358)">7</text></g><g clip-path="url(#clip21)"><text font-family="Calibri,Calibri_MSFontService,sans-serif" font-weight="400" font-size="16" transform="translate(628.486 381)">8</text></g><g clip-path="url(#clip22)"><text font-family="Calibri,Calibri_MSFontService,sans-serif" font-weight="400" font-size="16" transform="translate(628.486 405)">9</text></g><g clip-path="url(#clip23)"><text font-family="Calibri,Calibri_MSFontService,sans-serif" font-weight="400" font-size="16" transform="translate(620.319 428)">10</text></g><g clip-path="url(#clip24)"><text font-family="Calibri,Calibri_MSFontService,sans-serif" font-weight="400" font-size="16" transform="translate(620.319 452)">11</text></g><g clip-path="url(#clip25)"><text font-family="Calibri,Calibri_MSFontService,sans-serif" font-weight="400" font-size="16" transform="translate(620.319 475)">12</text></g><g clip-path="url(#clip26)"><text font-family="Calibri,Calibri_MSFontService,sans-serif" font-weight="400" font-size="16" transform="translate(620.319 498)">13</text></g><rect x="650" y="265" width="333" height="31" fill="#FFFFFF"/><path d="M863.054 268.707 871.721 268.707 871.721 290.707 863.054 290.707Z" fill="#FFFF00" fill-rule="evenodd"/><path d="M871.721 268.707 880.387 268.707 880.387 290.707 871.721 290.707Z" fill="#FFFF00" fill-rule="evenodd"/><text font-family="Calibri,Calibri_MSFontService,sans-serif" font-weight="400" font-size="17" transform="translate(659.601 286)">“<tspan fill="#C00000" font-size="17" x="7.33331" y="0">Breitbart</tspan><tspan font-size="17" x="74.44" y="0">leads </tspan><tspan fill="#70AD47" font-size="17" x="115.44" y="0">Fox News </tspan>in <tspan font-size="17" x="203.453" y="0">_</tspan><tspan font-size="17" x="212.12" y="0">_</tspan><tspan font-size="17" x="220.787" y="0">% of events</tspan><tspan font-size="17" x="302.207" y="0">”</tspan><tspan font-size="19" x="-43.4833" y="-174">2. </tspan><tspan font-size="19" x="-25.15" y="-174">Use publication timestamps to build the </tspan><tspan font-size="19" x="-43.4833" y="-151">dyadic </tspan><tspan font-size="19" x="9.73663" y="-151">comparison </tspan><tspan font-size="19" x="102.917" y="-151">table across </tspan><tspan font-size="19" x="197.39" y="-151">all news </tspan><tspan font-size="19" x="262.963" y="-151">events</tspan><tspan font-style="italic" font-size="16" x="-43.4833" y="-131">(1 </tspan><tspan font-style="italic" font-size="16" x="-26.8167" y="-131">–</tspan><tspan font-style="italic" font-size="16" x="-15.15" y="-131">13 represent outlets)</tspan><tspan font-style="italic" font-size="16" x="-348.545" y="238">Trilling &amp; van Hoof, 2020</tspan><tspan font-size="27" x="-608.748" y="-208">When outlets cover the same news events, who leads and who follows?</tspan></text><path d="M329.5 319.36C329.5 316.124 332.124 313.5 335.36 313.5L438.64 313.5C441.876 313.5 444.5 316.124 444.5 319.36L444.5 432.64C444.5 435.876 441.876 438.5 438.64 438.5L335.36 438.5C332.124 438.5 329.5 435.876 329.5 432.64Z" stroke="#4472C4" stroke-width="1.33333" stroke-miterlimit="8" fill="#DAE3F3" fill-rule="evenodd" fill-opacity="0.501961"/><path d="M352.5 369.5 420.286 369.5" stroke="#4472C4" stroke-width="0.666667" stroke-miterlimit="8" fill="none" fill-rule="evenodd"/><path d="M352.5 389.5 420.286 389.5" stroke="#4472C4" stroke-width="0.666667" stroke-miterlimit="8" fill="none" fill-rule="evenodd"/><path d="M352.5 412.5 420.286 412.5" stroke="#4472C4" stroke-width="0.666667" stroke-miterlimit="8" fill="none" fill-rule="evenodd"/><text fill="#4472C4" font-family="Calibri,Calibri_MSFontService,sans-serif" font-weight="400" font-size="19" transform="translate(351.921 338)">Newsmax<tspan font-size="19" x="3.13959" y="124">1:00 PM</tspan></text><rect x="650" y="307" width="333" height="31" fill="#FFFFFF"/><path d="M864.474 311.181 881.807 311.181 881.807 333.181 864.474 333.181Z" fill="#E9C9EF" fill-rule="evenodd"/><text font-family="Calibri,Calibri_MSFontService,sans-serif" font-weight="400" font-size="17" transform="translate(659.601 328)">“<tspan fill="#C00000" font-size="17" x="7.33331" y="0">Breitbart</tspan><tspan font-size="17" x="74.44" y="0">leads </tspan><tspan fill="#4472C4" font-size="17" x="115.44" y="0">Newsmax</tspan><tspan font-size="17" x="187.707" y="0">in </tspan><tspan font-size="17" x="204.873" y="0">__</tspan><tspan font-size="17" x="222.207" y="0">% of </tspan><tspan font-size="17" x="257.04" y="0">events</tspan>”</text></g></svg>